<svg width="20" height="20" viewBox="0 0 20 20" fill="none" xmlns="http://www.w3.org/2000/svg">
<path fill-rule="evenodd" clip-rule="evenodd" d="M4.22082 11.7574L5.99954 10.7306L8.97276 12.447C9.53933 12.7741 10.4579 12.7741 11.0245 12.447L13.9977 10.7306L15.7764 11.7574L9.99862 15.093L4.22082 11.7574ZM15.2968 9.98063L17.5085 11.2575C17.9868 11.5336 17.9868 11.9813 17.5085 12.2574L10.8647 16.0929C10.3864 16.369 9.61088 16.369 9.13258 16.0929L2.48873 12.2574C2.01043 11.9813 2.01043 11.5336 2.48873 11.2575L4.70047 9.98063L2.64855 8.79606C2.08198 8.46898 2.08198 7.93868 2.64855 7.6116L8.97276 3.96063C9.53933 3.63355 10.4579 3.63355 11.0245 3.96063L17.3487 7.6116C17.9153 7.93868 17.9153 8.46898 17.3487 8.79606L15.2968 9.98063ZM4.70027 8.20383L9.99862 5.14509L15.297 8.20383L9.99862 11.2626L4.70027 8.20383Z" fill="#191924"/>
</svg>
